<!--?xml version="1.0" encoding="utf-8"?-->
<!-- Generator: Adobe Illustrator 18.1.1, SVG Export Plug-In . SVG Version: 6.00 Build 0)  -->

<svg version="1.1" id="_x32_" xmlns="http://www.w3.org/2000/svg" xmlns:xlink="http://www.w3.org/1999/xlink" x="0px" y="0px" viewBox="0 0 512 512" style="width: 256px; height: 256px; opacity: 1;" xml:space="preserve">
<style type="text/css">
	.st0{fill:#4B4B4B;}
</style>
<g>
	<path class="st0" d="M506.522,221.901c-13.154-37.192-40.086-79.047-81.584-113.023c-40.232-32.941-94.371-58.169-162.086-63.537
		V22.732h-13.814V45.34c-67.715,5.368-121.854,30.596-162.086,63.537c-41.497,33.976-68.429,75.831-81.565,113.023L0,237.143
		l15.976-0.532c0.752,0.009,9.38,0.146,22.644,4.076c13.632,4.04,32.135,12.037,52.197,28.078l3.847,3.078l4.874-0.807
		c4.195-0.714,11.066-1.2,19.384-1.19c17.056,0,40.489,1.905,64.398,6.376c21.49,3.985,43.421,10.113,61.578,18.421v75.748
		c-3.5,2.492-5.808,6.577-5.808,11.212v51.08c-0.018,8.043-3.224,15.206-8.5,20.492c-5.276,5.268-12.44,8.482-20.483,8.492
		c-8.061-0.01-15.206-3.224-20.502-8.492c-5.258-5.285-8.483-12.449-8.483-20.492c0-6.523,2.108-12.422,5.699-17.277
		c4.543-6.11,3.26-14.758-2.858-19.31c-6.12-4.544-14.749-3.271-19.31,2.849c-6.981,9.398-11.139,21.142-11.139,33.738
		c0,15.572,6.357,29.808,16.581,40.013c10.186,10.214,24.422,16.581,40.013,16.572c15.572,0.009,29.808-6.357,40.013-16.572
		c10.205-10.205,16.581-24.44,16.581-40.013v-51.08c0-2.922-0.934-5.624-2.473-7.85V295.56c6.412-3.774,14.877-7.347,24.495-10.407
		c16.232-5.194,35.672-9.041,54.45-11.533c18.797-2.491,36.99-3.654,50.73-3.654c4.05,0,7.732,0.1,10.864,0.293
		c3.133,0.184,5.753,0.467,7.604,0.778l4.855,0.807l3.847-3.078c20.062-16.04,38.566-24.037,52.197-28.078
		c12.733-3.765,21.216-4.058,22.534-4.076L512,237.418L506.522,221.901z M98.659,237.198c-1.154,2.712-2.161,5.213-3.059,7.521
		c-19.072-13.586-36.844-21.106-50.713-25.2c-5.057-1.503-9.618-2.547-13.54-3.289c13.136-30.019,36.276-63.042,69.584-90.259
		c31.347-25.604,71.598-46.215,121.432-55.036c-13.832,10.278-26.62,21.894-38.309,34.196
		c-29.149,30.715-51.629,65.636-67.238,94.519C109.029,214.095,102.964,227.029,98.659,237.198z M247.664,271.788
		c-18.926-7.878-39.848-13.457-60.294-17.277c-25.357-4.727-49.816-6.742-68.448-6.751c-3.5,0.009-6.724,0.1-9.784,0.238
		c2.675-6.697,6.431-15.298,11.231-25.1c11.56-23.607,29.168-54.312,52.288-83.526c20.739-26.217,45.931-51.162,75.006-68.896
		V271.788z M406.086,248.209c-3.683-0.22-7.769-0.329-12.184-0.329c-19.914,0.009-46.975,2.17-73.504,6.953
		c-13.265,2.391-26.363,5.442-38.401,9.288c-7.309,2.336-14.198,4.956-20.537,7.961V67.911c23.432,12.651,44.52,30.102,62.97,49.54
		c28.012,29.487,49.943,63.483,65.094,91.578c7.585,14.043,13.466,26.62,17.607,36.366c0.44,1.036,0.842,2.025,1.246,2.996
		C407.607,248.337,406.892,248.264,406.086,248.209z M467.003,219.519c-12.824,3.792-28.983,10.516-46.444,22.241
		c-2.62-6.32-5.973-13.767-10.058-22.113c-11.89-24.312-29.918-55.787-53.846-86.017c-17.844-22.534-38.987-44.401-63.391-61.989
		c48.111,9.169,87.135,29.369,117.695,54.331c33.308,27.216,56.447,60.24,69.584,90.259
		C476.622,216.972,472.078,218.016,467.003,219.519z" style="fill: rgb(75, 75, 75);"></path>
</g>
</svg>
